<?xml version="1.0" encoding="UTF-8"?>
<svg xmlns="http://www.w3.org/2000/svg" xmlns:xlink="http://www.w3.org/1999/xlink" width="193.245pt" height="96.156pt" viewBox="0 0 193.245 96.156">
<defs>
<g>
<g id="glyph-0-0">
<path d="M 0.875 -0.578125 C 0.84375 -0.4375 0.78125 -0.203125 0.78125 -0.15625 C 0.78125 0.015625 0.921875 0.109375 1.0625 0.109375 C 1.1875 0.109375 1.359375 0.03125 1.4375 -0.171875 C 1.4375 -0.1875 1.5625 -0.65625 1.625 -0.90625 L 1.84375 -1.78125 C 1.890625 -2 1.953125 -2.21875 2 -2.453125 C 2.046875 -2.609375 2.125 -2.90625 2.140625 -2.9375 C 2.28125 -3.25 2.796875 -4.140625 3.75 -4.140625 C 4.1875 -4.140625 4.28125 -3.78125 4.28125 -3.453125 C 4.28125 -3.203125 4.203125 -2.9375 4.125 -2.640625 L 3.84375 -1.484375 L 3.65625 -0.734375 C 3.609375 -0.546875 3.53125 -0.203125 3.53125 -0.15625 C 3.53125 0.015625 3.65625 0.109375 3.8125 0.109375 C 4.125 0.109375 4.171875 -0.140625 4.25 -0.453125 C 4.390625 -1 4.765625 -2.453125 4.84375 -2.828125 C 4.875 -2.96875 5.40625 -4.140625 6.484375 -4.140625 C 6.90625 -4.140625 7.015625 -3.8125 7.015625 -3.453125 C 7.015625 -2.890625 6.59375 -1.765625 6.40625 -1.25 C 6.3125 -1 6.265625 -0.90625 6.265625 -0.703125 C 6.265625 -0.234375 6.609375 0.109375 7.078125 0.109375 C 8.015625 0.109375 8.375 -1.328125 8.375 -1.40625 C 8.375 -1.515625 8.28125 -1.515625 8.25 -1.515625 C 8.15625 -1.515625 8.15625 -1.484375 8.109375 -1.328125 C 7.953125 -0.8125 7.640625 -0.109375 7.09375 -0.109375 C 6.9375 -0.109375 6.859375 -0.203125 6.859375 -0.4375 C 6.859375 -0.6875 6.953125 -0.921875 7.046875 -1.140625 C 7.234375 -1.65625 7.640625 -2.75 7.640625 -3.3125 C 7.640625 -3.953125 7.25 -4.359375 6.5 -4.359375 C 5.765625 -4.359375 5.265625 -3.9375 4.890625 -3.40625 C 4.890625 -3.53125 4.859375 -3.875 4.578125 -4.109375 C 4.328125 -4.3125 4.015625 -4.359375 3.765625 -4.359375 C 2.890625 -4.359375 2.40625 -3.734375 2.234375 -3.5 C 2.1875 -4.0625 1.765625 -4.359375 1.328125 -4.359375 C 0.875 -4.359375 0.6875 -3.984375 0.59375 -3.796875 C 0.421875 -3.453125 0.28125 -2.875 0.28125 -2.84375 C 0.28125 -2.75 0.390625 -2.75 0.40625 -2.75 C 0.5 -2.75 0.515625 -2.75 0.578125 -2.96875 C 0.734375 -3.671875 0.9375 -4.140625 1.296875 -4.140625 C 1.453125 -4.140625 1.59375 -4.0625 1.59375 -3.6875 C 1.59375 -3.484375 1.5625 -3.375 1.4375 -2.859375 Z M 0.875 -0.578125 "/>
</g>
<g id="glyph-0-1">
<path d="M 2.984375 -3.203125 L 3.953125 -3.203125 C 4.6875 -3.203125 4.765625 -3.046875 4.765625 -2.765625 C 4.765625 -2.703125 4.765625 -2.578125 4.703125 -2.28125 C 4.6875 -2.234375 4.671875 -2.1875 4.671875 -2.171875 C 4.671875 -2.09375 4.734375 -2.046875 4.796875 -2.046875 C 4.890625 -2.046875 4.890625 -2.078125 4.9375 -2.265625 L 5.484375 -4.40625 C 5.515625 -4.515625 5.515625 -4.53125 5.515625 -4.5625 C 5.515625 -4.578125 5.484375 -4.671875 5.390625 -4.671875 C 5.296875 -4.671875 5.28125 -4.625 5.25 -4.46875 C 5.03125 -3.6875 4.8125 -3.515625 3.96875 -3.515625 L 3.078125 -3.515625 L 3.703125 -6.03125 C 3.796875 -6.375 3.796875 -6.40625 4.234375 -6.40625 L 5.546875 -6.40625 C 6.75 -6.40625 6.984375 -6.078125 6.984375 -5.328125 C 6.984375 -5.09375 6.984375 -5.0625 6.953125 -4.796875 C 6.9375 -4.65625 6.9375 -4.640625 6.9375 -4.609375 C 6.9375 -4.5625 6.96875 -4.5 7.046875 -4.5 C 7.15625 -4.5 7.171875 -4.546875 7.1875 -4.734375 L 7.390625 -6.453125 C 7.421875 -6.71875 7.359375 -6.71875 7.125 -6.71875 L 2.28125 -6.71875 C 2.078125 -6.71875 1.984375 -6.71875 1.984375 -6.515625 C 1.984375 -6.40625 2.078125 -6.40625 2.265625 -6.40625 C 2.625 -6.40625 2.90625 -6.40625 2.90625 -6.234375 C 2.90625 -6.1875 2.90625 -6.171875 2.859375 -6 L 1.546875 -0.765625 C 1.453125 -0.390625 1.4375 -0.3125 0.65625 -0.3125 C 0.484375 -0.3125 0.375 -0.3125 0.375 -0.125 C 0.375 0 0.5 0 0.515625 0 C 0.8125 0 1.546875 -0.03125 1.828125 -0.03125 C 2.15625 -0.03125 2.96875 0 3.296875 0 C 3.390625 0 3.5 0 3.5 -0.1875 C 3.5 -0.265625 3.453125 -0.28125 3.453125 -0.296875 C 3.421875 -0.3125 3.390625 -0.3125 3.171875 -0.3125 C 2.953125 -0.3125 2.90625 -0.3125 2.65625 -0.328125 C 2.375 -0.359375 2.34375 -0.390625 2.34375 -0.515625 C 2.34375 -0.546875 2.34375 -0.609375 2.375 -0.75 Z M 2.984375 -3.203125 "/>
</g>
<g id="glyph-0-2">
<path d="M 2.828125 -6.75 C 2.828125 -6.75 2.828125 -6.859375 2.703125 -6.859375 C 2.484375 -6.859375 1.75 -6.78125 1.5 -6.75 C 1.421875 -6.75 1.3125 -6.734375 1.3125 -6.5625 C 1.3125 -6.4375 1.40625 -6.4375 1.546875 -6.4375 C 2.03125 -6.4375 2.046875 -6.375 2.046875 -6.265625 L 2.015625 -6.078125 L 0.578125 -0.390625 C 0.546875 -0.25 0.546875 -0.234375 0.546875 -0.171875 C 0.546875 0.0625 0.734375 0.109375 0.828125 0.109375 C 0.953125 0.109375 1.109375 0.015625 1.171875 -0.09375 C 1.21875 -0.1875 1.65625 -2.015625 1.71875 -2.265625 C 2.046875 -2.234375 2.859375 -2.078125 2.859375 -1.421875 C 2.859375 -1.359375 2.859375 -1.3125 2.828125 -1.21875 C 2.8125 -1.09375 2.796875 -0.984375 2.796875 -0.875 C 2.796875 -0.28125 3.1875 0.109375 3.703125 0.109375 C 4 0.109375 4.265625 -0.046875 4.484375 -0.421875 C 4.734375 -0.84375 4.84375 -1.390625 4.84375 -1.40625 C 4.84375 -1.515625 4.75 -1.515625 4.71875 -1.515625 C 4.625 -1.515625 4.609375 -1.46875 4.578125 -1.328125 C 4.390625 -0.609375 4.15625 -0.109375 3.71875 -0.109375 C 3.53125 -0.109375 3.40625 -0.21875 3.40625 -0.578125 C 3.40625 -0.734375 3.453125 -0.96875 3.484375 -1.125 C 3.53125 -1.296875 3.53125 -1.328125 3.53125 -1.4375 C 3.53125 -2.078125 2.90625 -2.359375 2.0625 -2.46875 C 2.375 -2.640625 2.6875 -2.96875 2.90625 -3.203125 C 3.390625 -3.71875 3.84375 -4.140625 4.328125 -4.140625 C 4.390625 -4.140625 4.390625 -4.140625 4.421875 -4.140625 C 4.53125 -4.125 4.546875 -4.125 4.625 -4.0625 C 4.640625 -4.046875 4.640625 -4.03125 4.65625 -4.015625 C 4.1875 -3.984375 4.09375 -3.609375 4.09375 -3.484375 C 4.09375 -3.328125 4.203125 -3.140625 4.46875 -3.140625 C 4.734375 -3.140625 5.015625 -3.359375 5.015625 -3.75 C 5.015625 -4.03125 4.796875 -4.359375 4.34375 -4.359375 C 4.0625 -4.359375 3.609375 -4.28125 2.90625 -3.5 C 2.5625 -3.125 2.1875 -2.71875 1.8125 -2.578125 Z M 2.828125 -6.75 "/>
</g>
<g id="glyph-0-3">
<path d="M 2 -0.015625 C 2 -0.65625 1.75 -1.046875 1.375 -1.046875 C 1.046875 -1.046875 0.84375 -0.796875 0.84375 -0.515625 C 0.84375 -0.25 1.046875 0 1.375 0 C 1.484375 0 1.625 -0.046875 1.71875 -0.125 C 1.75 -0.140625 1.75 -0.15625 1.765625 -0.15625 C 1.78125 -0.15625 1.78125 -0.140625 1.78125 -0.015625 C 1.78125 0.71875 1.4375 1.3125 1.109375 1.640625 C 1 1.75 1 1.765625 1 1.796875 C 1 1.859375 1.0625 1.90625 1.109375 1.90625 C 1.21875 1.90625 2 1.140625 2 -0.015625 Z M 2 -0.015625 "/>
</g>
<g id="glyph-0-4">
<path d="M 2.03125 -3.953125 L 2.96875 -3.953125 C 3.15625 -3.953125 3.265625 -3.953125 3.265625 -4.140625 C 3.265625 -4.25 3.15625 -4.25 2.984375 -4.25 L 2.109375 -4.25 C 2.46875 -5.65625 2.515625 -5.859375 2.515625 -5.921875 C 2.515625 -6.078125 2.40625 -6.1875 2.234375 -6.1875 C 2.203125 -6.1875 1.921875 -6.171875 1.84375 -5.828125 L 1.453125 -4.25 L 0.515625 -4.25 C 0.328125 -4.25 0.234375 -4.25 0.234375 -4.0625 C 0.234375 -3.953125 0.3125 -3.953125 0.5 -3.953125 L 1.375 -3.953125 C 0.65625 -1.140625 0.625 -0.984375 0.625 -0.796875 C 0.625 -0.265625 1 0.109375 1.53125 0.109375 C 2.53125 0.109375 3.09375 -1.328125 3.09375 -1.40625 C 3.09375 -1.515625 3.015625 -1.515625 2.984375 -1.515625 C 2.890625 -1.515625 2.890625 -1.484375 2.828125 -1.375 C 2.40625 -0.34375 1.890625 -0.109375 1.546875 -0.109375 C 1.34375 -0.109375 1.25 -0.234375 1.25 -0.5625 C 1.25 -0.796875 1.265625 -0.875 1.296875 -1.03125 Z M 2.03125 -3.953125 "/>
</g>
<g id="glyph-1-0">
<path d="M 2.3125 -4.390625 C 2.3125 -4.578125 2.296875 -4.578125 2.109375 -4.578125 C 1.671875 -4.15625 1.03125 -4.140625 0.75 -4.140625 L 0.75 -3.890625 C 0.921875 -3.890625 1.375 -3.890625 1.75 -4.09375 L 1.75 -0.5625 C 1.75 -0.34375 1.75 -0.25 1.0625 -0.25 L 0.796875 -0.25 L 0.796875 0 C 0.921875 0 1.78125 -0.03125 2.03125 -0.03125 C 2.25 -0.03125 3.109375 0 3.265625 0 L 3.265625 -0.25 L 3 -0.25 C 2.3125 -0.25 2.3125 -0.34375 2.3125 -0.5625 Z M 2.3125 -4.390625 "/>
</g>
<g id="glyph-1-1">
<path d="M 3.484375 -1.25 L 3.25 -1.25 C 3.234375 -1.109375 3.15625 -0.703125 3.078125 -0.625 C 3.015625 -0.59375 2.484375 -0.59375 2.390625 -0.59375 L 1.125 -0.59375 C 1.84375 -1.234375 2.078125 -1.421875 2.5 -1.75 C 3.015625 -2.15625 3.484375 -2.578125 3.484375 -3.234375 C 3.484375 -4.078125 2.75 -4.578125 1.875 -4.578125 C 1.015625 -4.578125 0.4375 -3.984375 0.4375 -3.34375 C 0.4375 -3 0.734375 -2.96875 0.796875 -2.96875 C 0.96875 -2.96875 1.171875 -3.078125 1.171875 -3.328125 C 1.171875 -3.453125 1.125 -3.6875 0.765625 -3.6875 C 0.96875 -4.1875 1.4375 -4.34375 1.765625 -4.34375 C 2.453125 -4.34375 2.8125 -3.796875 2.8125 -3.234375 C 2.8125 -2.640625 2.390625 -2.15625 2.171875 -1.90625 L 0.5 -0.265625 C 0.4375 -0.203125 0.4375 -0.1875 0.4375 0 L 3.28125 0 Z M 3.484375 -1.25 "/>
</g>
<g id="glyph-1-2">
<path d="M 1.890625 -2.3125 C 2.421875 -2.3125 2.8125 -1.9375 2.8125 -1.1875 C 2.8125 -0.34375 2.3125 -0.078125 1.90625 -0.078125 C 1.640625 -0.078125 1.03125 -0.15625 0.734375 -0.5625 C 1.0625 -0.578125 1.140625 -0.8125 1.140625 -0.953125 C 1.140625 -1.171875 0.96875 -1.328125 0.765625 -1.328125 C 0.5625 -1.328125 0.375 -1.21875 0.375 -0.9375 C 0.375 -0.28125 1.09375 0.140625 1.921875 0.140625 C 2.890625 0.140625 3.546875 -0.5 3.546875 -1.1875 C 3.546875 -1.734375 3.109375 -2.265625 2.34375 -2.4375 C 3.078125 -2.6875 3.328125 -3.21875 3.328125 -3.625 C 3.328125 -4.171875 2.703125 -4.578125 1.9375 -4.578125 C 1.171875 -4.578125 0.59375 -4.21875 0.59375 -3.65625 C 0.59375 -3.421875 0.734375 -3.296875 0.953125 -3.296875 C 1.15625 -3.296875 1.296875 -3.453125 1.296875 -3.640625 C 1.296875 -3.84375 1.15625 -3.984375 0.953125 -4 C 1.1875 -4.3125 1.671875 -4.390625 1.921875 -4.390625 C 2.234375 -4.390625 2.671875 -4.234375 2.671875 -3.625 C 2.671875 -3.34375 2.5625 -3.03125 2.390625 -2.8125 C 2.15625 -2.546875 1.96875 -2.53125 1.625 -2.515625 C 1.453125 -2.5 1.4375 -2.5 1.40625 -2.5 C 1.390625 -2.5 1.328125 -2.484375 1.328125 -2.40625 C 1.328125 -2.3125 1.390625 -2.3125 1.515625 -2.3125 Z M 1.890625 -2.3125 "/>
</g>
<g id="glyph-2-0">
<path d="M 3.265625 2.375 C 3.265625 2.34375 3.265625 2.328125 3.09375 2.15625 C 1.859375 0.90625 1.546875 -0.953125 1.546875 -2.46875 C 1.546875 -4.1875 1.921875 -5.90625 3.140625 -7.140625 C 3.265625 -7.265625 3.265625 -7.28125 3.265625 -7.3125 C 3.265625 -7.375 3.234375 -7.40625 3.171875 -7.40625 C 3.078125 -7.40625 2.1875 -6.734375 1.59375 -5.484375 C 1.09375 -4.390625 0.984375 -3.296875 0.984375 -2.46875 C 0.984375 -1.703125 1.09375 -0.5 1.625 0.609375 C 2.21875 1.828125 3.078125 2.46875 3.171875 2.46875 C 3.234375 2.46875 3.265625 2.4375 3.265625 2.375 Z M 3.265625 2.375 "/>
</g>
<g id="glyph-2-1">
<path d="M 2.859375 -2.46875 C 2.859375 -3.234375 2.75 -4.4375 2.203125 -5.546875 C 1.609375 -6.765625 0.765625 -7.40625 0.65625 -7.40625 C 0.609375 -7.40625 0.5625 -7.359375 0.5625 -7.3125 C 0.5625 -7.28125 0.5625 -7.265625 0.75 -7.078125 C 1.71875 -6.109375 2.28125 -4.53125 2.28125 -2.46875 C 2.28125 -0.78125 1.921875 0.953125 0.6875 2.203125 C 0.5625 2.328125 0.5625 2.34375 0.5625 2.375 C 0.5625 2.421875 0.609375 2.46875 0.65625 2.46875 C 0.765625 2.46875 1.65625 1.796875 2.234375 0.546875 C 2.734375 -0.546875 2.859375 -1.640625 2.859375 -2.46875 Z M 2.859375 -2.46875 "/>
</g>
<g id="glyph-3-0">
<path d="M 1.890625 -2.46875 C 1.890625 -2.75 1.65625 -2.984375 1.375 -2.984375 C 1.09375 -2.984375 0.84375 -2.75 0.84375 -2.46875 C 0.84375 -2.1875 1.09375 -1.953125 1.375 -1.953125 C 1.65625 -1.953125 1.890625 -2.1875 1.890625 -2.46875 Z M 1.890625 -2.46875 "/>
</g>
<g id="glyph-3-1">
<path d="M 7.125 -2.46875 C 7.125 -4.28125 5.65625 -5.75 3.84375 -5.75 C 2 -5.75 0.546875 -4.265625 0.546875 -2.46875 C 0.546875 -0.65625 2.03125 0.8125 3.828125 0.8125 C 5.671875 0.8125 7.125 -0.671875 7.125 -2.46875 Z M 0.796875 -2.59375 C 0.890625 -4.25 2.171875 -5.4375 3.71875 -5.515625 L 3.71875 -2.59375 Z M 3.953125 -5.515625 C 5.515625 -5.4375 6.78125 -4.25 6.890625 -2.59375 L 3.953125 -2.59375 Z M 3.71875 0.578125 C 2.1875 0.5 0.890625 -0.65625 0.796875 -2.34375 L 3.71875 -2.34375 Z M 6.890625 -2.34375 C 6.78125 -0.65625 5.484375 0.5 3.953125 0.578125 L 3.953125 -2.34375 Z M 6.890625 -2.34375 "/>
</g>
<g id="glyph-4-0">
<path d="M 2 -3.265625 C 2.0625 -3.375 2.0625 -3.4375 2.0625 -3.484375 C 2.0625 -3.6875 1.875 -3.859375 1.65625 -3.859375 C 1.390625 -3.859375 1.3125 -3.640625 1.28125 -3.53125 L 0.359375 -0.546875 C 0.359375 -0.53125 0.328125 -0.4375 0.328125 -0.4375 C 0.328125 -0.359375 0.546875 -0.28125 0.59375 -0.28125 C 0.65625 -0.28125 0.65625 -0.296875 0.703125 -0.40625 Z M 2 -3.265625 "/>
</g>
</g>
</defs>
<path fill="none" stroke-width="0.3985" stroke-linecap="butt" stroke-linejoin="miter" stroke="rgb(0%, 0%, 0%)" stroke-opacity="1" stroke-miterlimit="10" d="M -9.928158 -6.212362 L 9.928207 -6.212362 L 9.928207 6.21215 L -9.928158 6.21215 Z M -9.928158 -6.212362 " transform="matrix(0.991299, 0, 0, -0.991299, 21.900366, 10.306535)"/>
<g fill="rgb(0%, 0%, 0%)" fill-opacity="1">
<use xlink:href="#glyph-0-0" x="15.349863" y="11.69138"/>
</g>
<g fill="rgb(0%, 0%, 0%)" fill-opacity="1">
<use xlink:href="#glyph-1-0" x="24.020755" y="13.172381"/>
</g>
<path fill="none" stroke-width="0.3985" stroke-linecap="butt" stroke-linejoin="miter" stroke="rgb(0%, 0%, 0%)" stroke-opacity="1" stroke-miterlimit="10" d="M -17.438821 -51.560059 L 17.43887 -51.560059 L 17.43887 -34.958578 L -17.438821 -34.958578 Z M -17.438821 -51.560059 " transform="matrix(0.991299, 0, 0, -0.991299, 21.900366, 10.306535)"/>
<g fill="rgb(0%, 0%, 0%)" fill-opacity="1">
<use xlink:href="#glyph-0-1" x="7.906199" y="55.657472"/>
</g>
<g fill="rgb(0%, 0%, 0%)" fill-opacity="1">
<use xlink:href="#glyph-2-0" x="15.628418" y="55.657472"/>
</g>
<g fill="rgb(0%, 0%, 0%)" fill-opacity="1">
<use xlink:href="#glyph-0-2" x="19.46871" y="55.657472"/>
</g>
<g fill="rgb(0%, 0%, 0%)" fill-opacity="1">
<use xlink:href="#glyph-0-3" x="24.926141" y="55.657472"/>
</g>
<g fill="rgb(0%, 0%, 0%)" fill-opacity="1">
<use xlink:href="#glyph-3-0" x="29.310326" y="55.657472"/>
</g>
<g fill="rgb(0%, 0%, 0%)" fill-opacity="1">
<use xlink:href="#glyph-2-1" x="32.054242" y="55.657472"/>
</g>
<path fill="none" stroke-width="0.3985" stroke-linecap="butt" stroke-linejoin="miter" stroke="rgb(0%, 0%, 0%)" stroke-opacity="1" stroke-miterlimit="10" d="M -7.354987 -80.396907 L 7.355036 -80.396907 L 7.355036 -66.132164 L -7.354987 -66.132164 Z M -7.354987 -80.396907 " transform="matrix(0.991299, 0, 0, -0.991299, 21.900366, 10.306535)"/>
<g fill="rgb(0%, 0%, 0%)" fill-opacity="1">
<use xlink:href="#glyph-0-4" x="17.902458" y="85.229903"/>
</g>
<g fill="rgb(0%, 0%, 0%)" fill-opacity="1">
<use xlink:href="#glyph-1-0" x="21.46816" y="86.710903"/>
</g>
<path fill="none" stroke-width="0.3985" stroke-linecap="butt" stroke-linejoin="miter" stroke="rgb(0%, 0%, 0%)" stroke-opacity="1" stroke-miterlimit="10" d="M -0.00194574 -6.41333 L -0.00194574 -34.300508 " transform="matrix(0.991299, 0, 0, -0.991299, 21.900366, 10.306535)"/>
<path fill="none" stroke-width="0.31879" stroke-linecap="round" stroke-linejoin="round" stroke="rgb(0%, 0%, 0%)" stroke-opacity="1" stroke-miterlimit="10" d="M -1.193774 1.593972 C -1.095261 0.99501 0.000208151 0.100508 0.299689 -0.00194574 C 0.000208151 -0.100459 -1.095261 -0.994961 -1.193774 -1.593923 " transform="matrix(0, 0.991299, 0.991299, 0, 21.900366, 44.308387)"/>
<path fill="none" stroke-width="0.3985" stroke-linecap="butt" stroke-linejoin="miter" stroke="rgb(0%, 0%, 0%)" stroke-opacity="1" stroke-miterlimit="10" d="M -0.00194574 -51.761026 L -0.00194574 -65.478035 " transform="matrix(0.991299, 0, 0, -0.991299, 21.900366, 10.306535)"/>
<path fill="none" stroke-width="0.31879" stroke-linecap="round" stroke-linejoin="round" stroke="rgb(0%, 0%, 0%)" stroke-opacity="1" stroke-miterlimit="10" d="M -1.195988 1.593972 C -1.097475 0.99501 0.00193477 0.100508 0.297475 -0.00194574 C 0.00193477 -0.100459 -1.097475 -0.994961 -1.195988 -1.593923 " transform="matrix(0, 0.991299, 0.991299, 0, 21.900366, 75.212926)"/>
<path fill="none" stroke-width="0.3985" stroke-linecap="butt" stroke-linejoin="miter" stroke="rgb(0%, 0%, 0%)" stroke-opacity="1" stroke-miterlimit="10" d="M 31.589337 -6.212362 L 51.445702 -6.212362 L 51.445702 6.21215 L 31.589337 6.21215 Z M 31.589337 -6.212362 " transform="matrix(0.991299, 0, 0, -0.991299, 21.900366, 10.306535)"/>
<g fill="rgb(0%, 0%, 0%)" fill-opacity="1">
<use xlink:href="#glyph-0-0" x="56.504631" y="11.69138"/>
</g>
<g fill="rgb(0%, 0%, 0%)" fill-opacity="1">
<use xlink:href="#glyph-1-1" x="65.175523" y="13.172381"/>
</g>
<g fill="rgb(0%, 0%, 0%)" fill-opacity="1">
<use xlink:href="#glyph-3-1" x="59.214842" y="32.9369"/>
</g>
<path fill="none" stroke-width="0.3985" stroke-linecap="butt" stroke-linejoin="miter" stroke="rgb(0%, 0%, 0%)" stroke-opacity="1" stroke-miterlimit="10" d="M 7.552063 -73.264535 L 21.26119 -73.264535 L 21.26119 -21.39131 L 33.666 -20.745062 " transform="matrix(0.991299, 0, 0, -0.991299, 21.900366, 10.306535)"/>
<path fill="none" stroke-width="0.31879" stroke-linecap="round" stroke-linejoin="round" stroke="rgb(0%, 0%, 0%)" stroke-opacity="1" stroke-miterlimit="10" d="M -1.194459 1.594588 C -1.095224 0.997547 -0.00140526 0.100302 0.297328 0.00193547 C -0.0000138987 -0.101013 -1.09603 -0.995112 -1.194175 -1.593748 " transform="matrix(0.989941, -0.0513691, -0.0513691, -0.989941, 55.272169, 30.872658)"/>
<path fill="none" stroke-width="0.3985" stroke-linecap="butt" stroke-linejoin="miter" stroke="rgb(0%, 0%, 0%)" stroke-opacity="1" stroke-miterlimit="10" d="M 24.078674 -51.560059 L 58.956365 -51.560059 L 58.956365 -34.958578 L 24.078674 -34.958578 Z M 24.078674 -51.560059 " transform="matrix(0.991299, 0, 0, -0.991299, 21.900366, 10.306535)"/>
<g fill="rgb(0%, 0%, 0%)" fill-opacity="1">
<use xlink:href="#glyph-0-1" x="49.060967" y="55.657472"/>
</g>
<g fill="rgb(0%, 0%, 0%)" fill-opacity="1">
<use xlink:href="#glyph-2-0" x="56.783186" y="55.657472"/>
</g>
<g fill="rgb(0%, 0%, 0%)" fill-opacity="1">
<use xlink:href="#glyph-0-2" x="60.624469" y="55.657472"/>
</g>
<g fill="rgb(0%, 0%, 0%)" fill-opacity="1">
<use xlink:href="#glyph-0-3" x="66.072024" y="55.657472"/>
</g>
<g fill="rgb(0%, 0%, 0%)" fill-opacity="1">
<use xlink:href="#glyph-3-0" x="70.466085" y="55.657472"/>
</g>
<g fill="rgb(0%, 0%, 0%)" fill-opacity="1">
<use xlink:href="#glyph-2-1" x="73.20901" y="55.657472"/>
</g>
<path fill="none" stroke-width="0.3985" stroke-linecap="butt" stroke-linejoin="miter" stroke="rgb(0%, 0%, 0%)" stroke-opacity="1" stroke-miterlimit="10" d="M 34.162508 -80.396907 L 48.872531 -80.396907 L 48.872531 -66.132164 L 34.162508 -66.132164 Z M 34.162508 -80.396907 " transform="matrix(0.991299, 0, 0, -0.991299, 21.900366, 10.306535)"/>
<g fill="rgb(0%, 0%, 0%)" fill-opacity="1">
<use xlink:href="#glyph-0-4" x="59.057226" y="85.229903"/>
</g>
<g fill="rgb(0%, 0%, 0%)" fill-opacity="1">
<use xlink:href="#glyph-1-1" x="62.622928" y="86.710903"/>
</g>
<path fill="none" stroke-width="0.3985" stroke-linecap="butt" stroke-linejoin="miter" stroke="rgb(0%, 0%, 0%)" stroke-opacity="1" stroke-miterlimit="10" d="M 41.515549 -6.41333 L 41.515549 -13.041312 " transform="matrix(0.991299, 0, 0, -0.991299, 21.900366, 10.306535)"/>
<path fill="none" stroke-width="0.31879" stroke-linecap="round" stroke-linejoin="round" stroke="rgb(0%, 0%, 0%)" stroke-opacity="1" stroke-miterlimit="10" d="M -1.196791 1.594847 C -1.094337 0.995885 0.00113248 0.101383 0.300613 -0.00107073 C 0.00113248 -0.0995841 -1.094337 -0.998027 -1.196791 -1.593048 " transform="matrix(0, 0.991299, 0.991299, 0, 63.055749, 23.233252)"/>
<path fill="none" stroke-width="0.3985" stroke-linecap="butt" stroke-linejoin="miter" stroke="rgb(0%, 0%, 0%)" stroke-opacity="1" stroke-miterlimit="10" d="M 41.515549 -27.179958 L 41.515549 -34.300508 " transform="matrix(0.991299, 0, 0, -0.991299, 21.900366, 10.306535)"/>
<path fill="none" stroke-width="0.31879" stroke-linecap="round" stroke-linejoin="round" stroke="rgb(0%, 0%, 0%)" stroke-opacity="1" stroke-miterlimit="10" d="M -1.193774 1.594847 C -1.095261 0.995885 0.000208151 0.101383 0.299689 -0.00107073 C 0.000208151 -0.0995841 -1.095261 -0.998027 -1.193774 -1.593048 " transform="matrix(0, 0.991299, 0.991299, 0, 63.055749, 44.308387)"/>
<path fill="none" stroke-width="0.3985" stroke-linecap="butt" stroke-linejoin="miter" stroke="rgb(0%, 0%, 0%)" stroke-opacity="1" stroke-miterlimit="10" d="M 41.515549 -51.761026 L 41.515549 -65.478035 " transform="matrix(0.991299, 0, 0, -0.991299, 21.900366, 10.306535)"/>
<path fill="none" stroke-width="0.31879" stroke-linecap="round" stroke-linejoin="round" stroke="rgb(0%, 0%, 0%)" stroke-opacity="1" stroke-miterlimit="10" d="M -1.195988 1.594847 C -1.097475 0.995885 0.00193477 0.101383 0.297475 -0.00107073 C 0.00193477 -0.0995841 -1.097475 -0.998027 -1.195988 -1.593048 " transform="matrix(0, 0.991299, 0.991299, 0, 63.055749, 75.212926)"/>
<path fill="none" stroke-width="0.3985" stroke-linecap="butt" stroke-linejoin="miter" stroke="rgb(0%, 0%, 0%)" stroke-opacity="1" stroke-miterlimit="10" d="M 73.102892 -6.212362 L 92.963197 -6.212362 L 92.963197 6.21215 L 73.102892 6.21215 Z M 73.102892 -6.212362 " transform="matrix(0.991299, 0, 0, -0.991299, 21.900366, 10.306535)"/>
<g fill="rgb(0%, 0%, 0%)" fill-opacity="1">
<use xlink:href="#glyph-0-0" x="97.659399" y="11.69138"/>
</g>
<g fill="rgb(0%, 0%, 0%)" fill-opacity="1">
<use xlink:href="#glyph-1-2" x="106.330291" y="13.172381"/>
</g>
<g fill="rgb(0%, 0%, 0%)" fill-opacity="1">
<use xlink:href="#glyph-3-1" x="100.36961" y="32.9369"/>
</g>
<path fill="none" stroke-width="0.3985" stroke-linecap="butt" stroke-linejoin="miter" stroke="rgb(0%, 0%, 0%)" stroke-opacity="1" stroke-miterlimit="10" d="M 49.069558 -73.264535 L 62.778685 -73.264535 L 62.778685 -21.39131 L 75.179555 -20.745062 " transform="matrix(0.991299, 0, 0, -0.991299, 21.900366, 10.306535)"/>
<path fill="none" stroke-width="0.31879" stroke-linecap="round" stroke-linejoin="round" stroke="rgb(0%, 0%, 0%)" stroke-opacity="1" stroke-miterlimit="10" d="M -1.193585 1.594543 C -1.09435 0.997502 -0.000531402 0.100257 0.298202 0.00189012 C 0.000859957 -0.101059 -1.095157 -0.995157 -1.197237 -1.59359 " transform="matrix(0.989941, -0.0513691, -0.0513691, -0.989941, 96.427551, 30.872658)"/>
<path fill="none" stroke-width="0.3985" stroke-linecap="butt" stroke-linejoin="miter" stroke="rgb(0%, 0%, 0%)" stroke-opacity="1" stroke-miterlimit="10" d="M 65.596169 -51.560059 L 100.469919 -51.560059 L 100.469919 -34.958578 L 65.596169 -34.958578 Z M 65.596169 -51.560059 " transform="matrix(0.991299, 0, 0, -0.991299, 21.900366, 10.306535)"/>
<g fill="rgb(0%, 0%, 0%)" fill-opacity="1">
<use xlink:href="#glyph-0-1" x="90.215735" y="55.657472"/>
</g>
<g fill="rgb(0%, 0%, 0%)" fill-opacity="1">
<use xlink:href="#glyph-2-0" x="97.937954" y="55.657472"/>
</g>
<g fill="rgb(0%, 0%, 0%)" fill-opacity="1">
<use xlink:href="#glyph-0-2" x="101.779237" y="55.657472"/>
</g>
<g fill="rgb(0%, 0%, 0%)" fill-opacity="1">
<use xlink:href="#glyph-0-3" x="107.226792" y="55.657472"/>
</g>
<g fill="rgb(0%, 0%, 0%)" fill-opacity="1">
<use xlink:href="#glyph-3-0" x="111.620853" y="55.657472"/>
</g>
<g fill="rgb(0%, 0%, 0%)" fill-opacity="1">
<use xlink:href="#glyph-2-1" x="114.363778" y="55.657472"/>
</g>
<path fill="none" stroke-width="0.3985" stroke-linecap="butt" stroke-linejoin="miter" stroke="rgb(0%, 0%, 0%)" stroke-opacity="1" stroke-miterlimit="10" d="M 75.680003 -80.396907 L 90.386086 -80.396907 L 90.386086 -66.132164 L 75.680003 -66.132164 Z M 75.680003 -80.396907 " transform="matrix(0.991299, 0, 0, -0.991299, 21.900366, 10.306535)"/>
<g fill="rgb(0%, 0%, 0%)" fill-opacity="1">
<use xlink:href="#glyph-0-4" x="100.211994" y="85.229903"/>
</g>
<g fill="rgb(0%, 0%, 0%)" fill-opacity="1">
<use xlink:href="#glyph-1-2" x="103.777696" y="86.710903"/>
</g>
<path fill="none" stroke-width="0.3985" stroke-linecap="butt" stroke-linejoin="miter" stroke="rgb(0%, 0%, 0%)" stroke-opacity="1" stroke-miterlimit="10" d="M 104.958191 -81.575127 L 142.629722 -81.575127 L 142.629722 -64.953943 L 104.958191 -64.953943 Z M 104.958191 -81.575127 " transform="matrix(0.991299, 0, 0, -0.991299, 21.900366, 10.306535)"/>
<g fill="rgb(0%, 0%, 0%)" fill-opacity="1">
<use xlink:href="#glyph-0-1" x="129.236236" y="85.41131"/>
</g>
<g fill="rgb(0%, 0%, 0%)" fill-opacity="1">
<use xlink:href="#glyph-2-0" x="136.959446" y="85.41131"/>
</g>
<g fill="rgb(0%, 0%, 0%)" fill-opacity="1">
<use xlink:href="#glyph-0-2" x="140.799739" y="85.41131"/>
</g>
<g fill="rgb(0%, 0%, 0%)" fill-opacity="1">
<use xlink:href="#glyph-4-0" x="146.251883" y="81.826773"/>
</g>
<g fill="rgb(0%, 0%, 0%)" fill-opacity="1">
<use xlink:href="#glyph-0-3" x="149.022564" y="85.41131"/>
</g>
<g fill="rgb(0%, 0%, 0%)" fill-opacity="1">
<use xlink:href="#glyph-3-0" x="153.412035" y="85.41131"/>
</g>
<g fill="rgb(0%, 0%, 0%)" fill-opacity="1">
<use xlink:href="#glyph-2-1" x="156.155951" y="85.41131"/>
</g>
<path fill="none" stroke-width="0.3985" stroke-linecap="butt" stroke-linejoin="miter" stroke="rgb(0%, 0%, 0%)" stroke-opacity="1" stroke-miterlimit="10" d="M 157.201827 -79.648205 L 167.439341 -79.648205 L 167.439341 -66.880866 L 157.201827 -66.880866 Z M 157.201827 -79.648205 " transform="matrix(0.991299, 0, 0, -0.991299, 21.900366, 10.306535)"/>
<g fill="rgb(0%, 0%, 0%)" fill-opacity="1">
<use xlink:href="#glyph-0-4" x="181.024668" y="85.970403"/>
</g>
<path fill="none" stroke-width="0.3985" stroke-linecap="butt" stroke-linejoin="miter" stroke="rgb(0%, 0%, 0%)" stroke-opacity="1" stroke-miterlimit="10" d="M 83.033044 -6.41333 L 83.033044 -34.300508 " transform="matrix(0.991299, 0, 0, -0.991299, 21.900366, 10.306535)"/>
<path fill="none" stroke-width="0.31879" stroke-linecap="round" stroke-linejoin="round" stroke="rgb(0%, 0%, 0%)" stroke-opacity="1" stroke-miterlimit="10" d="M -1.193774 1.595732 C -1.095261 0.99677 0.000208151 0.0983277 0.299689 -0.000185723 C 0.000208151 -0.0986991 -1.095261 -0.997142 -1.193774 -1.592163 " transform="matrix(0, 0.991299, 0.991299, 0, 104.211122, 44.308387)"/>
<path fill="none" stroke-width="0.3985" stroke-linecap="butt" stroke-linejoin="miter" stroke="rgb(0%, 0%, 0%)" stroke-opacity="1" stroke-miterlimit="10" d="M 83.033044 -51.761026 L 83.033044 -65.478035 " transform="matrix(0.991299, 0, 0, -0.991299, 21.900366, 10.306535)"/>
<path fill="none" stroke-width="0.31879" stroke-linecap="round" stroke-linejoin="round" stroke="rgb(0%, 0%, 0%)" stroke-opacity="1" stroke-miterlimit="10" d="M -1.195988 1.595732 C -1.097475 0.99677 0.00193477 0.0983277 0.297475 -0.000185723 C 0.00193477 -0.0986991 -1.097475 -0.997142 -1.195988 -1.592163 " transform="matrix(0, 0.991299, 0.991299, 0, 104.211122, 75.212926)"/>
<path fill="none" stroke-width="0.3985" stroke-linecap="butt" stroke-linejoin="miter" stroke="rgb(0%, 0%, 0%)" stroke-opacity="1" stroke-miterlimit="10" d="M 90.587053 -73.264535 L 104.300121 -73.264535 " transform="matrix(0.991299, 0, 0, -0.991299, 21.900366, 10.306535)"/>
<path fill="none" stroke-width="0.31879" stroke-linecap="round" stroke-linejoin="round" stroke="rgb(0%, 0%, 0%)" stroke-opacity="1" stroke-miterlimit="10" d="M -1.195572 1.592781 C -1.097058 0.99776 -0.00158898 0.0993181 0.297892 0.000804643 C -0.00158898 -0.0977088 -1.097058 -0.996151 -1.195572 -1.595113 " transform="matrix(0.991299, 0, 0, -0.991299, 125.294544, 82.934391)"/>
<path fill="none" stroke-width="0.3985" stroke-linecap="butt" stroke-linejoin="miter" stroke="rgb(0%, 0%, 0%)" stroke-opacity="1" stroke-miterlimit="10" d="M 142.830689 -73.264535 L 156.543757 -73.264535 " transform="matrix(0.991299, 0, 0, -0.991299, 21.900366, 10.306535)"/>
<path fill="none" stroke-width="0.31879" stroke-linecap="round" stroke-linejoin="round" stroke="rgb(0%, 0%, 0%)" stroke-opacity="1" stroke-miterlimit="10" d="M -1.194856 1.592781 C -1.096342 0.99776 -0.000872988 0.0993181 0.298608 0.000804643 C -0.000872988 -0.0977088 -1.096342 -0.996151 -1.194856 -1.595113 " transform="matrix(0.991299, 0, 0, -0.991299, 177.082897, 82.934391)"/>
</svg>
